Coordinates
version=1
nRows=24
nColumns=34
inDegrees=no

Units are S.I. units (second, meters, Newtons, ...)
If the header above contains a line with 'inDegrees', this indicates whether rotational values are in degrees (yes) or radians (no).

endheader
time	pelvis_tilt	pelvis_list	pelvis_rotation	pelvis_tx	pelvis_ty	pelvis_tz	hip_flexion_r	hip_adduction_r	hip_rotation_r	knee_angle_r	ankle_angle_r	subtalar_angle_r	mtp_angle_r	hip_flexion_l	hip_adduction_l	hip_rotation_l	knee_angle_l	ankle_angle_l	subtalar_angle_l	mtp_angle_l	lumbar_extension	lumbar_bending	lumbar_rotation	arm_flex_r	arm_add_r	arm_rot_r	elbow_flex_r	pro_sup_r	arm_flex_l	arm_add_l	arm_rot_l	elbow_flex_l	pro_sup_l
1.2	-0.0550229	0.0358404	-0.131501	1.08651	1.03486	-0.298996	0.494096	-0.0162581	-0.183995	0.232952	0.0258906	0.0145163	-0.0454775	-0.110873	0.00459488	-0.391337	0.1611	0.356512	0.371481	-0.0406335	-0.276493	-0.412136	-0.164422	-0.137076	-0.190809	0.121132	0.785873	1.89468	0.319967	-0.528602	-0.0194693	0.953801	1.88682
1.21	-0.0541388	0.0400813	-0.12599	1.09619	1.03234	-0.300015	0.488158	-0.0172253	-0.187576	0.181625	0.0406469	0.0743149	-0.0455027	-0.127486	0.0138352	-0.389821	0.148409	0.36233	0.3817	-0.0406416	-0.282136	-0.405559	-0.16449	-0.135216	-0.19295	0.117755	0.779565	1.8947	0.321062	-0.521552	-0.0157932	0.964213	1.88426
1.22	-0.0527526	0.0440931	-0.120934	1.10603	1.02983	-0.301003	0.482254	-0.0182924	-0.189166	0.135552	0.0550919	0.131331	-0.0455279	-0.144716	0.0225097	-0.389365	0.136376	0.367713	0.393156	-0.0406497	-0.287889	-0.398392	-0.163828	-0.132908	-0.195317	0.114251	0.772736	1.89472	0.320809	-0.513948	-0.0124851	0.974107	1.88237
1.23	-0.0509003	0.0478744	-0.116396	1.11603	1.02734	-0.301954	0.47695	-0.0195932	-0.188505	0.09661	0.0685771	0.182248	-0.0455531	-0.162298	0.0306285	-0.389559	0.125366	0.372643	0.404989	-0.0406579	-0.293678	-0.390666	-0.162552	-0.130002	-0.19794	0.110912	0.765267	1.89474	0.319051	-0.505876	-0.00973714	0.983464	1.88133
1.24	-0.0486445	0.0513693	-0.112397	1.12617	1.02488	-0.30286	0.472764	-0.0211976	-0.185555	0.0664744	0.080432	0.224087	-0.0455783	-0.17992	0.0381016	-0.390055	0.115814	0.377168	0.416443	-0.040666	-0.299429	-0.382343	-0.16078	-0.126374	-0.200841	0.107971	0.757084	1.89476	0.315675	-0.497423	-0.00766379	0.992261	1.88117
1.25	-0.0460577	0.0544644	-0.108906	1.13646	1.02249	-0.303719	0.470072	-0.0230784	-0.180492	0.0463702	0.0899693	0.254525	-0.0456035	-0.197261	0.0447187	-0.39062	0.108203	0.381394	0.426967	-0.0406742	-0.305092	-0.37331	-0.158619	-0.121944	-0.204024	0.10557	0.748167	1.89478	0.310634	-0.488677	-0.00627181	1.00046	1.88181
1.26	-0.0432077	0.0569941	-0.105838	1.14689	1.02018	-0.304524	0.469041	-0.0250989	-0.173642	0.0368738	0.0964961	0.272119	-0.0456286	-0.214022	0.0501561	-0.391154	0.103036	0.385453	0.436258	-0.0406823	-0.310647	-0.363384	-0.156157	-0.11669	-0.207469	0.103741	0.73856	1.8948	0.30395	-0.479725	-0.00544743	1.00797	1.88309
1.27	-0.0401405	0.0587373	-0.103061	1.15748	1.01797	-0.305272	0.469602	-0.027028	-0.165437	0.0378176	0.0993697	0.276445	-0.0456538	-0.229944	0.0540064	-0.391677	0.100792	0.38946	0.444262	-0.0406905	-0.316108	-0.352341	-0.153465	-0.11065	-0.211131	0.1024	0.728365	1.89482	0.295718	-0.470654	-0.00496682	1.01469	1.88488
1.28	-0.0368402	0.0594241	-0.100393	1.16823	1.01591	-0.305949	0.471492	-0.0285739	-0.156366	0.0483202	0.0980865	0.268096	-0.045679	-0.244812	0.0558345	-0.392288	0.101887	0.393466	0.451113	-0.0406987	-0.321493	-0.339957	-0.150586	-0.103917	-0.214934	0.101354	0.717735	1.89485	0.286085	-0.461548	-0.00452543	1.02044	1.88709
1.29	-0.0333314	0.0588373	-0.097649	1.17915	1.01403	-0.306546	0.474317	-0.0294262	-0.146932	0.066954	0.0923974	0.248552	-0.0457042	-0.25846	0.0552266	-0.393085	0.106634	0.39741	0.45702	-0.0407068	-0.326836	-0.326028	-0.147543	-0.096628	-0.218783	0.100337	0.706852	1.89487	0.275232	-0.452482	-0.0037828	1.02503	1.88968
1.3	-0.0296524	0.0568142	-0.0946549	1.19026	1.01235	-0.307057	0.477656	-0.0293109	-0.13762	0.0919846	0.0824209	0.219953	-0.0457293	-0.270755	0.051859	-0.39411	0.115218	0.401077	0.462159	-0.040715	-0.332151	-0.310415	-0.144338	-0.0889454	-0.222562	0.0990415	0.695908	1.8949	0.26334	-0.443519	-0.00242005	1.02827	1.89261
1.31	-0.0258596	0.053275	-0.091279	1.20155	1.01089	-0.307473	0.481141	-0.0280285	-0.128861	0.12163	0.0687114	0.184793	-0.0457545	-0.281584	0.0455462	-0.395306	0.127686	0.404085	0.466596	-0.0407232	-0.337417	-0.293079	-0.14097	-0.0810334	-0.226153	0.0971761	0.685093	1.89493	0.250562	-0.434706	-0.000198747	1.03001	1.89581
1.32	-0.0220231	0.048236	-0.0874508	1.21304	1.00966	-0.307786	0.484507	-0.0254753	-0.120989	0.154271	0.0522586	0.145602	-0.0457797	-0.290852	0.0362645	-0.396524	0.143954	0.405896	0.470252	-0.0407314	-0.342579	-0.274091	-0.137425	-0.0730471	-0.229443	0.0944966	0.67458	1.89495	0.237008	-0.426064	0.00299738	1.03017	1.89915
1.33	-0.0182167	0.0418141	-0.0831674	1.22471	1.00867	-0.307987	0.487585	-0.0216563	-0.114243	0.188591	0.0344218	0.104732	-0.0458048	-0.298476	0.024166	-0.397494	0.163829	0.405831	0.472857	-0.0407396	-0.347553	-0.253638	-0.13369	-0.0651239	-0.232339	0.090841	0.664528	1.89497	0.222733	-0.417587	0.00714406	1.0287	1.90249
1.34	-0.0145056	0.0342079	-0.0784866	1.23656	1.00792	-0.308068	0.490268	-0.0166676	-0.108763	0.223579	0.0167725	0.064176	-0.04583	-0.304388	0.00954858	-0.397874	0.187057	0.403124	0.473984	-0.0407478	-0.352242	-0.232001	-0.129761	-0.0573783	-0.234778	0.0861566	0.655083	1.89498	0.207746	-0.409242	0.012079	1.02566	1.90566
1.35	-0.0109365	0.0256553	-0.0735073	1.2486	1.0074	-0.30802	0.492431	-0.0106512	-0.104583	0.258457	0.00087217	0.0254474	-0.0458551	-0.308514	-0.00721488	-0.397343	0.213397	0.397002	0.473168	-0.040756	-0.356552	-0.209508	-0.125648	-0.0498996	-0.236734	0.080514	0.646377	1.89498	0.192015	-0.400973	0.0175259	1.02113	1.90848
1.36	-0.00754039	0.016391	-0.0683389	1.2608	1.00712	-0.307838	0.493887	-0.00375445	-0.101659	0.292547	-0.0119438	-0.0104371	-0.0458802	-0.310749	-0.0257463	-0.39565	0.242689	0.386759	0.469987	-0.0407642	-0.360401	-0.186483	-0.121386	-0.0427547	-0.23822	0.0741032	0.638544	1.89497	0.175492	-0.392714	0.0231394	1.01523	1.91081
1.37	-0.00434721	0.00661368	-0.0630682	1.27316	1.00707	-0.30752	0.494369	0.0038971	-0.0999275	0.325182	-0.0207337	-0.0428941	-0.0459054	-0.310928	-0.0457173	-0.392615	0.274888	0.371812	0.46408	-0.0407725	-0.363712	-0.163201	-0.117035	-0.0359901	-0.239289	0.0672154	0.631711	1.89495	0.158144	-0.384389	0.0285559	1.00806	1.91256
1.38	-0.00140608	-0.00352787	-0.0577304	1.28568	1.00724	-0.307072	0.49357	0.0122079	-0.0993419	0.355655	-0.0250368	-0.0716801	-0.0459305	-0.308786	-0.0668785	-0.388096	0.310081	0.351749	0.455151	-0.0407807	-0.366402	-0.139853	-0.112687	-0.0296347	-0.240024	0.0602137	0.626005	1.89493	0.139978	-0.375927	0.0334389	0.999707	1.91371
1.39	0.00119629	-0.0139326	-0.052295	1.29833	1.0076	-0.30651	0.491221	0.021102	-0.0999051	0.383261	-0.0248709	-0.0967966	-0.0459556	-0.303943	-0.0890568	-0.381942	0.348463	0.32635	0.442947	-0.0407889	-0.368357	-0.116538	-0.108466	-0.0237007	-0.240538	0.0534961	0.621545	1.89491	0.121057	-0.367261	0.0375107	0.990168	1.9143
1.4	0.00332503	-0.0245334	-0.0466662	1.31108	1.00814	-0.305856	0.487173	0.0304981	-0.101662	0.407381	-0.0206516	-0.118411	-0.0459807	-0.295906	-0.112122	-0.373958	0.390279	0.295595	0.427253	-0.0407972	-0.369424	-0.0932772	-0.104526	-0.0181847	-0.240956	0.0474579	0.618434	1.8949	0.101511	-0.358333	0.0405657	0.979405	1.91444
1.41	0.00480089	-0.0352755	-0.0407002	1.3239	1.0088	-0.305147	0.481465	0.0402847	-0.104672	0.427598	-0.0130628	-0.136796	-0.0460059	-0.284113	-0.135934	-0.363895	0.435752	0.259658	0.407897	-0.0408054	-0.369413	-0.0700505	-0.101041	-0.0130665	-0.241412	0.0424568	0.616747	1.89493	0.0815255	-0.349095	0.0424645	0.967336	1.91424
1.42	0.00542278	-0.0460915	-0.0342354	1.33675	1.00955	-0.304421	0.474341	0.0503015	-0.108967	0.443778	-0.00291315	-0.152282	-0.046031	-0.268009	-0.160294	-0.35148	0.484992	0.218889	0.384784	-0.0408137	-0.36812	-0.0468406	-0.0981918	-0.00830658	-0.242038	0.0387877	0.616522	1.89501	0.0613281	-0.339512	0.0431163	0.953869	1.91383
1.43	0.00500544	-0.0568874	-0.0271294	1.34958	1.01035	-0.303719	0.466215	0.0603445	-0.114511	0.456098	0.00898605	-0.165226	-0.0460561	-0.247142	-0.184908	-0.336481	0.53792	0.173806	0.357936	-0.0408219	-0.365365	-0.0236671	-0.0961357	-0.0038442	-0.242952	0.0366642	0.617749	1.89515	0.0411648	-0.329566	0.0424578	0.938936	1.91331
